<?xml version="1.0" standalone="no"?><!DOCTYPE svg PUBLIC "-//W3C//DTD SVG 1.1//EN" "http://www.w3.org/Graphics/SVG/1.1/DTD/svg11.dtd"><svg t="1509521194497" class="icon" style="" viewBox="0 0 1092 1024" version="1.1" xmlns="http://www.w3.org/2000/svg" p-id="13313" xmlns:xlink="http://www.w3.org/1999/xlink" width="213.28125" height="200"><defs><style type="text/css"></style></defs><path d="M783.48 270.01a43.895 43.895 0 0 0-23.074-24.233 46.42 46.42 0 0 0-29.49-5.189 45.328 45.328 0 0 0-15.838 84.103 255.039 255.039 0 0 1 71.542 176.875 255.858 255.858 0 0 1-84.649 189.573 43.758 43.758 0 0 0-15.7 33.586c0 24.44 20.274 44.304 45.327 44.304a45.738 45.738 0 0 0 32.631-13.584 43.758 43.758 0 0 0 19.25-22.391 339.346 339.346 0 0 0 91.75-231.42 339.551 339.551 0 0 0-91.75-231.623z m158.58-161.583a46.42 46.42 0 0 0-41.574-25.258 45.738 45.738 0 0 0-46.283 45.191c0 16.384 8.874 30.72 22.322 38.707a439.764 439.764 0 0 1 126.905 308.559c0 134.004-60.756 254.014-156.395 335.864l0.136 0.273a44.44 44.44 0 0 0-25.326 39.867c0 24.576 20.411 44.578 45.533 44.578a45.874 45.874 0 0 0 37.75-19.32l0.137 0.069c114.344-97.824 186.978-241.181 186.978-401.4a525.233 525.233 0 0 0-150.183-367.13zM454.988 31.56L227.323 259.157H88.54C29.15 259.157 0 290.422 0 345.785v288.42c0 54.476 30.105 86.56 88.54 86.56h138.783L454.988 948.43c65.398 60.074 164.928 33.587 164.928-66.149V97.641c0-100.691-100.76-124.925-164.928-66.08z m76.388 806.417c0 65.535-29.763 28.808-60.21-0.682-53.246-51.2-133.526-134.073-199.539-203.09H147.59c-44.85 0-59.049-14.676-59.049-57.683V403.469c0-42.12 15.087-57.684 59.05-57.684h125.47c65.672-69.426 145.2-152.095 198.311-202.884 30.173-28.876 60.005-66.422 60.005 1.775v693.301z" p-id="13314" fill="#f76a24"></path></svg>