<?xml version="1.0" standalone="no"?><!DOCTYPE svg PUBLIC "-//W3C//DTD SVG 1.1//EN" "http://www.w3.org/Graphics/SVG/1.1/DTD/svg11.dtd"><svg t="1509343152918" class="icon" style="" viewBox="0 0 1024 1024" version="1.1" xmlns="http://www.w3.org/2000/svg" p-id="989" xmlns:xlink="http://www.w3.org/1999/xlink" width="200" height="200"><defs><style type="text/css"></style></defs><path d="M621.7 959.6c-10.1 0-18.3-8.2-18.3-18.3V374.6c0-4.9 1.9-9.5 5.4-12.9L870 100.4H155.9l277.2 260.9c3.7 3.5 5.7 8.3 5.7 13.3v420.5c0 10.1-8.2 18.3-18.3 18.3s-18.3-8.2-18.3-18.3V382.5L97.3 95.5c-5.5-5.1-7.2-13.1-4.5-20 2.8-7 9.5-11.6 17-11.6h804.4c7.4 0 14.1 4.4 16.9 11.3 2.8 6.8 1.3 14.7-4 19.9L640 382.2v559.1c0 10.1-8.2 18.3-18.3 18.3z" fill="#108ee9" p-id="990"></path></svg>
