<?xml version="1.0" standalone="no"?><!DOCTYPE svg PUBLIC "-//W3C//DTD SVG 1.1//EN" "http://www.w3.org/Graphics/SVG/1.1/DTD/svg11.dtd"><svg t="1510630707709" class="icon" style="" viewBox="0 0 1024 1024" version="1.1" xmlns="http://www.w3.org/2000/svg" p-id="1334" xmlns:xlink="http://www.w3.org/1999/xlink" width="200" height="200"><defs><style type="text/css"></style></defs><path d="M1015.552 565.76l-2.56 2.56h-122.88v378.368c0 24.576-19.968 44.544-44.544 44.544H178.944c-24.576 0-44.544-19.968-44.544-44.544V568.32H11.008l-2.56-2.56c-11.264-11.264-11.264-29.184 0-40.448L492.288 41.472c11.264-11.264 29.184-11.264 40.448 0l483.328 483.328c10.752 11.776 10.752 29.696-0.512 40.96z m-124.928-242.688c-12.288 0-22.016-9.728-22.016-22.016V144.896h-155.648c-12.288 0-22.016-9.728-22.016-22.016s9.728-22.016 22.016-22.016H891.136c12.288 0 22.016 9.728 22.016 22.016v178.176c-0.512 12.288-10.24 22.016-22.528 22.016z" p-id="1335" fill="#1284D6"></path></svg>