<?xml version="1.0" standalone="no"?><!DOCTYPE svg PUBLIC "-//W3C//DTD SVG 1.1//EN" "http://www.w3.org/Graphics/SVG/1.1/DTD/svg11.dtd"><svg t="1510622455651" class="icon" style="" viewBox="0 0 1024 1024" version="1.1" xmlns="http://www.w3.org/2000/svg" p-id="1009" xmlns:xlink="http://www.w3.org/1999/xlink" width="200" height="200"><defs><style type="text/css"></style></defs><path d="M973.312 534.528c-4.096 0-7.68-1.536-10.752-4.608l-450.048-456.704-450.048 455.168c-6.144 6.144-15.872 6.144-21.504 0-6.144-6.144-6.144-15.872 0-21.504L501.76 40.448c3.072-3.072 6.656-4.608 10.752-4.608s8.192 1.536 10.752 4.608l460.8 467.968c6.144 6.144 5.632 15.872 0 21.504-3.072 3.072-6.656 4.608-10.752 4.608zM855.04 988.16h-268.288c-8.704 0-15.36-6.656-15.36-15.36v-243.2h-117.76V972.8c0 8.704-6.656 15.36-15.36 15.36H169.984c-8.704 0-15.36-6.656-15.36-15.36v-419.84c0-8.704 6.656-15.36 15.36-15.36s15.36 6.656 15.36 15.36v404.48h237.568v-243.2c0-8.704 6.656-15.36 15.36-15.36h148.992c8.704 0 15.36 6.656 15.36 15.36V957.44H839.68v-404.48c0-8.704 6.656-15.36 15.36-15.36s15.36 6.656 15.36 15.36v419.84c0 8.704-6.656 15.36-15.36 15.36zM855.04 326.144c-8.704 0-15.36-6.656-15.36-15.36V148.48h-163.328c-8.704 0-15.36-6.656-15.36-15.36s6.656-15.36 15.36-15.36H855.04c8.704 0 15.36 6.656 15.36 15.36v177.664c0 8.192-6.656 15.36-15.36 15.36z" fill="#949494" p-id="1010"></path></svg>