<?xml version="1.0" standalone="no"?><!DOCTYPE svg PUBLIC "-//W3C//DTD SVG 1.1//EN" "http://www.w3.org/Graphics/SVG/1.1/DTD/svg11.dtd"><svg t="1510624507750" class="icon" style="" viewBox="0 0 1024 1024" version="1.1" xmlns="http://www.w3.org/2000/svg" p-id="16441" xmlns:xlink="http://www.w3.org/1999/xlink" width="200" height="200"><defs><style type="text/css"></style></defs><path d="M127.9994 758.433174c-33.998349 0-64.417725 28.629589-64.417725 62.627339 0 33.998949 30.419376 64.418125 64.417725 64.418125 33.997949 0 62.627938-30.419376 62.627938-64.418125C190.627139 787.062564 161.99715 758.433174 127.9994 758.433174zM127.9994 450.647053c-33.998349 0-64.417725 28.629989-64.417725 62.627938 0 34.006943 30.419376 62.642329 64.417725 62.642329 33.997949 0 62.627938-28.635585 62.627938-62.642329C190.627139 479.277042 161.99715 450.647053 127.9994 450.647053zM357.038912 262.762439l542.180602 0c32.209162 0 59.049764-25.051015 59.049764-57.259578 0-32.209162-26.840602-59.049764-59.049764-59.049764L357.038912 146.453097c-32.208563 0-59.049365 26.840802-59.049365 59.049764C297.989747 237.711624 324.830349 262.762439 357.038912 262.762439zM127.9994 141.085336c-33.998349 0-64.417725 30.419376-64.417725 64.417725 0 33.997949 30.419376 62.627938 64.417725 62.627938 33.997949 0 62.627938-28.629989 62.627938-62.627938C190.627139 171.504512 161.99715 141.085336 127.9994 141.085336zM899.219513 454.225627 357.038912 454.225627c-32.208563 0-59.049365 26.840802-59.049365 59.049365 0 32.216157 26.840802 59.062755 59.049365 59.062755l542.180602 0c32.209162 0 59.049764-26.846598 59.049764-59.062755C958.269277 481.066429 931.428675 454.225627 899.219513 454.225627zM899.219513 762.011748 357.038912 762.011748c-32.208563 0-59.049365 26.840802-59.049365 59.048765 0 32.209162 26.840802 59.049764 59.049365 59.049764l542.180602 0c32.209162 0 59.049764-26.840602 59.049764-59.049764C958.269277 788.85255 931.428675 762.011748 899.219513 762.011748z" p-id="16442" fill="#ffffff"></path></svg>