<?xml version="1.0" standalone="no"?><!DOCTYPE svg PUBLIC "-//W3C//DTD SVG 1.1//EN" "http://www.w3.org/Graphics/SVG/1.1/DTD/svg11.dtd"><svg t="1510624229820" class="icon" style="" viewBox="0 0 1024 1024" version="1.1" xmlns="http://www.w3.org/2000/svg" p-id="9929" xmlns:xlink="http://www.w3.org/1999/xlink" width="200" height="200"><defs><style type="text/css"></style></defs><path d="M914.035516 26.952862H110.221334c-63.866586 0-110.222357 49.617048-110.222357 117.969808V737.561245c0 66.075905 44.213991 110.502743 110.222357 110.502744h235.565087l140.960429 137.592728c7.556093 7.593955 17.507746 11.390421 27.461445 11.390421 10.075473 0 20.027126-3.923356 27.712155-11.517311L680.234609 848.190879H914.034493c65.757656 0 109.971647-44.426839 109.971647-110.502744V144.92267c0.001023-68.352761-46.228881-117.969808-109.970624-117.969808z m0 742.631728H664.86762c-10.328229-0.252757-20.784372 3.670599-28.596292 11.522427l-122.31579 121.130802-124.709303-121.386628c-7.938809-7.846712-18.267039-11.646248-28.596292-11.266601H110.221334c-22.799262 0-32.120558-9.240455-32.120558-32.023345l2.527566-590.903047c0-11.662621 3.131317-38.706557 31.934317-38.706557h799.130509c28.555359 0 31.686676 27.043936 31.686676 38.706557l2.527567 590.903047c0 22.782889-9.196453 32.023344-31.871895 32.023345z m-637.911688-405.67951c-38.264489 0-69.282946 31.166837-69.282946 69.616544 0 38.44766 31.018457 69.616544 69.282946 69.616544s69.284993-31.168883 69.284993-69.616544c0-38.449707-31.020504-69.616544-69.284993-69.616544z m246.901273 0c-38.264489 0-69.282946 31.166837-69.282946 69.616544 0 38.44766 31.018457 69.616544 69.282946 69.616544s69.282946-31.168883 69.282946-69.616544c0-38.449707-31.018457-69.616544-69.282946-69.616544z m245.263983-0.887206c-38.264489 0-69.282946 31.166837-69.282946 69.614497 0 38.45073 31.018457 69.619614 69.282946 69.619614s69.282946-31.168883 69.282946-69.619614c-0.001023-38.44766-31.019481-69.614497-69.282946-69.614497z" p-id="9930" fill="#ffffff"></path></svg>