<?xml version="1.0" standalone="no"?><!DOCTYPE svg PUBLIC "-//W3C//DTD SVG 1.1//EN" "http://www.w3.org/Graphics/SVG/1.1/DTD/svg11.dtd"><svg t="1510624042463" class="icon" style="" viewBox="0 0 1024 1024" version="1.1" xmlns="http://www.w3.org/2000/svg" p-id="8670" xmlns:xlink="http://www.w3.org/1999/xlink" width="200" height="200"><defs><style type="text/css"></style></defs><path d="M867.346586 98.359487H154.97363c-37.926996 0-68.939784 31.081425-68.939785 69.073445V730.236467c0 37.993826 31.012788 57.584083 68.939785 57.584082h45.959254c37.92519 0 114.899039 59.738903 114.899039 97.730923 0 23.226176 8.21288 40.215476 20.735399 40.215476 7.922079 0 17.594384-6.305512 28.007239-16.741848l40.394292-43.063884c26.795266-26.885577 79.757233-78.142473 117.682423-78.142473H867.346586c37.903515 0 68.939784-19.590256 68.939784-57.584083V167.432932c0-37.99202-31.034463-69.073445-68.939784-69.073445z m22.98053 631.87698c0 12.477364-10.524841 12.657986-22.98053 12.657986H522.64947c-50.156908 0-114.720223 52.376752-150.176311 87.924957l-16.517877 19.120639c-15.192112-45.782245-104.307368-107.045596-155.024204-107.045596H154.97363c-12.455689 0-22.98053-0.180622-22.98053-12.657986V167.432932c0-12.477364 10.524841-23.025686 22.98053-23.025686h712.372956c12.455689 0 22.98053 10.546515 22.98053 23.025686V730.236467z" fill="#ffffff" p-id="8671"></path><path d="M729.468823 351.474051H430.730961c-12.701335 0-22.978724 10.30087-22.978724 23.025686 0 12.713979 10.277389 23.025686 22.978724 23.025686h298.739669c12.679661 0 22.98053-10.311707 22.98053-23.025686-0.001806-12.724816-10.302676-23.025686-22.982337-23.025686zM729.468823 512.568959H269.872669c-12.701335 0-22.98053 10.309901-22.980531 23.013042 0 12.724816 10.277389 23.025686 22.980531 23.025686h459.597961c12.679661 0 22.98053-10.30087 22.98053-23.025686-0.001806-12.703141-10.302676-23.013042-22.982337-23.013042z" fill="#ffffff" p-id="8672"></path></svg>