<?xml version="1.0" standalone="no"?><!DOCTYPE svg PUBLIC "-//W3C//DTD SVG 1.1//EN" "http://www.w3.org/Graphics/SVG/1.1/DTD/svg11.dtd"><svg t="1510623498693" class="icon" style="" viewBox="0 0 1024 1024" version="1.1" xmlns="http://www.w3.org/2000/svg" p-id="19312" xmlns:xlink="http://www.w3.org/1999/xlink" width="200" height="200"><defs><style type="text/css"></style></defs><path d="M1020.957804 965.952849c-22.707932-200.567809-161.169547-366.023479-347.03397-427.831631a293.03167 293.03167 0 0 0 131.649235-244.748929C805.573069 131.379579 674.25026 0.05677 512.257551 0.05677S218.998802 131.322809 218.998802 293.315519a293.03167 293.03167 0 0 0 131.649235 244.748929c-189.171266 62.915164-329.265014 233.196269-348.140982 438.546936h0.17031a99.673629 99.673629 0 0 0-0.454159 10.019875c0 20.607448-3.902926 37.311971 16.704522 37.311971l975.589528-0.80897c20.607448 0 27.618522-15.909745 27.618522-36.517193-0.070962-7.209768 0.383196-14.518884-1.177974-20.664218z" p-id="19313" fill="#1284D6"></path></svg>