<?xml version="1.0" standalone="no"?><!DOCTYPE svg PUBLIC "-//W3C//DTD SVG 1.1//EN" "http://www.w3.org/Graphics/SVG/1.1/DTD/svg11.dtd"><svg t="1505383229810" class="icon" style="" viewBox="0 0 1024 1024" version="1.1" xmlns="http://www.w3.org/2000/svg" p-id="17669" xmlns:xlink="http://www.w3.org/1999/xlink" width="200" height="200"><defs><style type="text/css"></style></defs><path d="M513.707 151.892963c0 63.146985 51.199988 114.346972 114.345972 114.346972h146.773964c0-11.946997-5.119999-22.186995-13.653997-30.719992l-204.79995-206.50695c-8.532998-6.825998-20.479995-11.945997-32.425992-11.945997h-10.239997v134.825967z m179.199956 314.026923c-136.533967 0-249.173939 110.932973-249.173939 249.172939s110.933973 249.173939 249.173939 249.17394S942.079895 853.332792 942.079895 715.092825 829.439923 465.919886 692.906956 465.919886z m0 460.799888c-117.759971 0-211.626948-95.572977-211.626949-211.626949s95.572977-211.625948 211.626949-211.625948c117.759971 0 211.625948 93.865977 211.625948 211.625948S810.666927 926.719774 692.906956 926.719774z" fill="" p-id="17670"></path><path d="M414.720024 715.092825c0-153.599963 124.58697-278.185932 278.186932-278.185932 29.012993 0 56.319986 5.119999 81.91998 11.945997v-163.83996H628.052972c-73.385982 0-131.412968-59.732985-131.412968-131.412967V17.066996H136.533092c-23.892994 0-44.372989 18.772995-44.37299 44.372989v764.586813c0 23.892994 20.479995 44.372989 44.37299 44.37299H460.800012c-29.012993-44.372989-46.079989-97.279976-46.079988-155.306963z m419.839897 168.959959l134.826967 134.826967c6.825998 6.826998 20.479995 6.826998 27.305994 0 6.826998-6.826998 6.826998-20.479995 0-27.306993L861.866915 856.746791l-27.306994 27.305993z" fill="" p-id="17671"></path></svg>