<?xml version="1.0" standalone="no"?><!DOCTYPE svg PUBLIC "-//W3C//DTD SVG 1.1//EN" "http://www.w3.org/Graphics/SVG/1.1/DTD/svg11.dtd"><svg t="1505383246296" class="icon" style="" viewBox="0 0 1024 1024" version="1.1" xmlns="http://www.w3.org/2000/svg" p-id="17790" xmlns:xlink="http://www.w3.org/1999/xlink" width="200" height="200"><defs><style type="text/css"></style></defs><path d="M151.504 141.696c155.744-157.184 408.192-157.184 563.84 0 143.808 145.328 154.688 373.712 33.008 531.776l63.712 64.304c10.384-3.664 21.52-2.032 28.864 5.44l143.376 149.84c11.008 11.04 9.296 30.608-3.728 43.696l-53.776 52.704c-12.976 13.168-32.384 16.72-43.264 5.584l-148.384-145.088c-7.344-7.344-8.992-18.544-5.44-29.104l-65.376-66.112a395.76 395.76 0 0 1-512.896-43.408c-155.632-157.296-155.632-412.24 0.064-569.632z m82.288 486.624a280.48 280.48 0 0 0 399.472 0c110.224-111.392 110.224-292.032 0-403.536a280.416 280.416 0 0 0-399.472 0c-110.288 111.488-110.288 292.128 0 403.536z m369.872-373.872a25.312 25.312 0 0 1 0 35.68 24.64 24.64 0 0 1-35.168 0v-0.048a189.968 189.968 0 0 0-270.16 0.064 24.768 24.768 0 0 1-35.184 0 25.312 25.312 0 0 1 0-35.632 238.976 238.976 0 0 1 340.512-0.064z" p-id="17791"></path></svg>