<?xml version="1.0" standalone="no"?><!DOCTYPE svg PUBLIC "-//W3C//DTD SVG 1.1//EN" "http://www.w3.org/Graphics/SVG/1.1/DTD/svg11.dtd"><svg t="1510624765611" class="icon" style="" viewBox="0 0 1024 1024" version="1.1" xmlns="http://www.w3.org/2000/svg" p-id="17341" xmlns:xlink="http://www.w3.org/1999/xlink" width="200" height="200"><defs><style type="text/css"></style></defs><path d="M345.394495 435.360506c18.101263 0 34.225499 7.336082 46.218648 19.078521 11.966543 12.218276 19.302625 28.367071 19.302625 46.443775 0 18.101263-7.336082 34.225499-19.302625 45.967938-11.993149 11.742439-28.117384 19.553335-46.218648 19.553335-18.076704 0-34.476209-7.81192-46.193065-19.553335-11.992125-11.742439-19.078521-27.865651-19.078521-45.967938 0-18.076704 7.086395-34.225499 19.078521-46.443775C310.919309 442.696588 327.317791 435.360506 345.394495 435.360506L345.394495 435.360506zM511.163959 110.657262 511.163959 110.657262c122.505102 0 233.744625 43.038212 314.437435 112.716154C907.998009 294.052153 959.097828 392.097166 959.097828 500.881778c0 108.559485-51.099818 206.852138-133.496433 277.258675-80.693834 69.927629-192.183044 112.716154-314.437435 112.716154-37.155225 0-73.108065-4.155646-107.333564-11.491729-29.568433-6.109138-58.18519-14.648628-85.324294-26.38902l-107.834984 58.18519c-10.515494 5.380544-21.757536 8.061606-32.998555 7.336082l0 0c-11.242042-0.976234-22.007223-5.132904-31.797194-12.220323-9.28855-7.334036-16.124236-16.622586-20.029172-27.638477l0 0c-4.155646-10.515494-4.906753-22.007223-2.453888-33.725102l25.913183-113.717971c-25.412786-30.29498-46.443775-64.294328-60.638055-100.222609C72.04178 590.363765 62.753229 546.124192 62.753229 500.881778c0-108.785635 50.850132-206.829626 133.496433-277.508361C276.94452 153.695474 388.432707 110.657262 511.163959 110.657262L511.163959 110.657262zM781.111111 275.450493 781.111111 275.450493c-68.951395-58.911738-164.317393-95.840812-269.947152-95.840812-106.10662 0-201.471594 36.929074-270.39843 95.840812-66.998927 57.960063-109.060905 137.90279-109.060905 225.432309 0 36.20355 7.336082 71.403237 20.530592 103.928001 13.694907 33.725102 33.498952 64.795748 58.4359 91.934852 8.563026 8.061606 12.969383 20.279882 10.039657 32.998555L195.273429 841.733816l105.630782-57.234539c9.03784-4.631484 20.279882-5.608741 30.319539-0.976234 26.889417 12.467963 55.982012 22.50762 87.028099 28.865421 29.343305 6.361895 60.639079 9.541307 92.91211 9.541307 105.630782 0 200.995757-36.679387 269.947152-95.866395 67.474764-57.684794 108.784612-137.653103 108.784612-225.181599S848.585875 333.410556 781.111111 275.450493L781.111111 275.450493zM362.519524 483.782332 362.519524 483.782332c-4.406356-4.406356-10.515494-7.336082-17.125029-7.336082-6.584975 0-12.718673 2.929726-17.10047 7.336082-3.930519 3.90596-6.860245 10.264784-6.860245 17.10047 0 6.860245 2.929726 12.718673 6.860245 16.624632 4.381797 4.657067 10.515494 7.336082 17.10047 7.336082 6.609535 0 12.718673-2.679016 17.125029-7.336082 4.406356-3.90596 6.834662-9.764388 6.834662-16.624632C369.355209 494.047116 366.92588 487.687268 362.519524 483.782332L362.519524 483.782332zM511.163959 435.360506 511.163959 435.360506c18.101263 0 34.250058 7.336082 45.967938 19.078521 11.993149 12.218276 19.078521 28.367071 19.078521 46.443775 0 18.101263-7.084349 34.225499-19.078521 45.967938-11.716856 11.742439-27.865651 19.553335-45.967938 19.553335-18.327414 0-34.701336-7.81192-46.442752-19.553335-11.743462-11.742439-19.329231-27.865651-19.329231-45.967938 0-18.076704 7.585769-34.225499 19.329231-46.443775C476.462622 442.696588 492.836545 435.360506 511.163959 435.360506L511.163959 435.360506zM527.788591 483.782332 527.788591 483.782332c-4.381797-4.406356-10.264784-7.336082-16.624632-7.336082-6.834662 0-12.9438 2.929726-17.10047 7.336082-4.406356 3.90596-7.085372 10.264784-7.085372 17.10047 0 6.860245 2.679016 12.718673 7.085372 16.624632 4.155646 4.657067 10.264784 7.336082 17.10047 7.336082 6.358825 0 12.242835-2.679016 16.624632-7.336082 4.406356-3.90596 7.336082-9.764388 7.336082-16.624632C535.12365 494.047116 532.194948 487.687268 527.788591 483.782332L527.788591 483.782332zM676.456562 435.360506 676.456562 435.360506c18.102287 0 34.225499 7.336082 46.443775 19.078521 11.742439 12.218276 19.078521 28.367071 19.078521 46.443775 0 18.101263-7.336082 34.225499-19.078521 45.967938-12.218276 11.742439-28.340465 19.553335-46.443775 19.553335-18.101263 0-34.224476-7.81192-46.468334-19.553335-11.716856-11.742439-19.051915-27.865651-19.051915-45.967938 0-18.076704 7.335059-34.225499 19.051915-46.443775C642.232087 442.696588 658.355299 435.360506 676.456562 435.360506L676.456562 435.360506zM693.558056 483.782332 693.558056 483.782332c-4.38282-4.406356-10.264784-7.336082-17.101493-7.336082-6.860245 0-12.718673 2.929726-17.125029 7.336082-4.381797 3.90596-6.834662 10.264784-6.834662 17.10047 0 6.860245 2.452865 12.718673 6.834662 16.624632 4.406356 4.657067 10.264784 7.336082 17.125029 7.336082 6.835685 0 12.718673-2.679016 17.101493-7.336082 4.155646-3.90596 6.859221-9.764388 6.859221-16.624632C700.417277 494.047116 697.713702 487.687268 693.558056 483.782332L693.558056 483.782332z" p-id="17342" fill="#949494"></path></svg>