<?xml version="1.0" standalone="no"?><!DOCTYPE svg PUBLIC "-//W3C//DTD SVG 1.1//EN" "http://www.w3.org/Graphics/SVG/1.1/DTD/svg11.dtd"><svg t="1510624354007" class="icon" style="" viewBox="0 0 1024 1024" version="1.1" xmlns="http://www.w3.org/2000/svg" p-id="10334" xmlns:xlink="http://www.w3.org/1999/xlink" width="200" height="200"><defs><style type="text/css"></style></defs><path d="M251.12381 588.751238c-0.975238 15.018667-1.852952 35.401143-2.633143 60.611048-1.365333 42.520381-2.048 84.943238-2.048 85.333333a44.860952 44.860952 0 0 0 45.592381 45.689905c0.487619 0 42.861714-0.731429 85.333333-2.096762 25.258667-0.78019 45.641143-1.657905 60.708571-2.584381 27.745524-1.706667 44.470857-2.730667 58.319238-16.579048l432.274286-432.274285a47.542857 47.542857 0 0 0 1.609143-1.609143 161.889524 161.889524 0 0 0 0-228.742095 161.889524 161.889524 0 0 0-230.351238 1.609142L267.702857 530.383238c-13.897143 13.848381-14.921143 30.622476-16.579047 58.368z m90.307047-5.12l420.864-420.864a43.934476 43.934476 0 0 0 1.804191-1.755428l0.975238-0.975239a72.021333 72.021333 0 0 1 101.717333 0c28.038095 27.989333 28.038095 73.630476 0 101.668572l-1.024 0.975238a44.470857 44.470857 0 0 0-1.755429 1.80419l-420.864 420.864a2542.933333 2542.933333 0 0 1-105.959619 4.242286c1.072762-43.885714 2.681905-86.064762 4.242286-105.959619z" fill="#ffffff" p-id="10335"></path><path d="M889.904762 799.792762a138.971429 138.971429 0 0 1-138.971429 138.873905H224.304762a138.971429 138.971429 0 0 1-138.971429-138.971429V273.066667A138.776381 138.776381 0 0 1 224.304762 134.095238h305.152a36.571429 36.571429 0 1 0 0-73.142857H224.353524A211.919238 211.919238 0 0 0 12.190476 273.066667v526.628571a212.114286 212.114286 0 0 0 212.114286 212.114286h526.628571a212.114286 212.114286 0 0 0 212.114286-212.016762v-303.006476a36.571429 36.571429 0 1 0-73.142857 0v303.006476z" fill="#ffffff" p-id="10336"></path></svg>