<?xml version="1.0" standalone="no"?><!DOCTYPE svg PUBLIC "-//W3C//DTD SVG 1.1//EN" "http://www.w3.org/Graphics/SVG/1.1/DTD/svg11.dtd"><svg t="1505439000253" class="icon" style="" viewBox="0 0 1864 1024" version="1.1" xmlns="http://www.w3.org/2000/svg" p-id="2388" xmlns:xlink="http://www.w3.org/1999/xlink" width="364.0625" height="200"><defs><style type="text/css"></style></defs><path d="M46.413423 404.884409" p-id="2389" fill="#cdcdcd"></path><path d="M962.813826 1024.00004c-610.668383 0-864.351035-470.4202-874.853736-490.444288l-12.160324-23.180203 13.539466-22.384544c12.054236-19.918 301.607854-487.991006 858.436636-487.991006 545.172375 0 885.343175 465.155589 899.558952 484.95424l16.390578 22.848678-12.664241 25.116307C1840.969547 552.956574 1596.224799 1024.00004 962.813826 1024.00004zM183.730928 513.677535c57.008977 91.76602 293.598219 417.495607 779.082898 417.495607 500.960249 0 733.650762-320.876066 791.123873-415.055585C1679.371178 424.842193 1378.426373 92.813638 947.78913 92.813638 509.2616 92.813638 246.972568 423.635443 183.730928 513.677535z" p-id="2390" fill="#cdcdcd"></path><path d="M950.573937 832.736846c-194.366265 0-352.490256-143.881693-352.490256-320.730195 0-176.835242 158.123991-320.716934 352.490256-320.716934 194.353004 0 352.476995 143.881693 352.476995 320.716934C1303.050931 688.855153 1144.92694 832.736846 950.573937 832.736846zM950.573937 284.116614c-143.178861 0-259.663357 102.228937-259.663357 227.890036 0 125.67436 116.484497 227.903297 259.663357 227.903297s259.650096-102.228937 259.650096-227.903297C1210.224033 386.345552 1093.752797 284.116614 950.573937 284.116614z" p-id="2391" fill="#cdcdcd"></path></svg>