<?xml version="1.0" standalone="no"?><!DOCTYPE svg PUBLIC "-//W3C//DTD SVG 1.1//EN" "http://www.w3.org/Graphics/SVG/1.1/DTD/svg11.dtd"><svg t="1511508053140" class="icon" style="" viewBox="0 0 1024 1024" version="1.1" xmlns="http://www.w3.org/2000/svg" p-id="4807" xmlns:xlink="http://www.w3.org/1999/xlink" width="32" height="32"><defs><style type="text/css"></style></defs><path d="M1005.482 511.9212c0 95.0077-203.4831 297.684-493.4554 297.684-282.5923 0-493.4554-199.3411-493.4554-297.684 0-98.3286 211.7734-297.3655 493.4554-297.3655C804.2783 214.5567 1005.5506 413.5926 1005.482 511.9212zM512.4608 268.8553c-131.33 0-237.7933 108.9014-237.7933 243.2276 0 134.3273 106.4622 243.2276 237.7933 243.2276 131.371 0 237.8373-108.9014 237.8373-243.2276C750.2971 377.7567 643.8318 268.8553 512.4608 268.8553zM512.0266 356.7995c-83.6342 0-151.4353 69.3371-151.4353 154.8769 0 85.5306 67.8011 154.88 151.4353 154.88s151.4076-69.3494 151.4076-154.88C663.4342 426.1366 595.6608 356.7995 512.0266 356.7995z" p-id="4808"></path></svg>