<?xml version="1.0" standalone="no"?><!DOCTYPE svg PUBLIC "-//W3C//DTD SVG 1.1//EN" "http://www.w3.org/Graphics/SVG/1.1/DTD/svg11.dtd"><svg t="1510652340813" class="icon" style="" viewBox="0 0 1024 1024" version="1.1" xmlns="http://www.w3.org/2000/svg" p-id="11648" xmlns:xlink="http://www.w3.org/1999/xlink" width="200" height="200"><defs><style type="text/css"></style></defs><path d="M383.701333 665.216c40.106667-3.114667 108.629333-34.474667 136.618667-62.421333l324.906667-324.906667a42.624 42.624 0 0 0-0.213334-60.672L785.066667 157.568a42.965333 42.965333 0 0 0-60.757334-0.128l-324.693333 324.693333c-27.946667 27.904-59.904 97.066667-63.274667 137.130667l-4.224 49.962667 51.541334-4.010667zM664.32 36.394667c48.853333-48.853333 129.152-47.786667 178.986667 2.090666l120.661333 120.661334c50.005333 49.962667 50.517333 130.517333 2.048 178.986666l-355.157333 355.157334c-48.853333 48.853333-145.066667 92.842667-214.784 98.261333l-161.152 12.544c-23.04 1.792-40.106667-15.317333-38.144-38.869333l13.354666-159.146667c5.845333-69.589333 50.56-166.016 98.986667-214.485333L664.405333 36.394667z m30.634667 149.888l120.704 120.661333-88.704 88.704-120.661334-120.704 88.661334-88.661333zM64 1024h896c35.328 0 64-28.757333 64-64.213333 0-35.456-28.672-64.213333-64-64.213334h-896c-35.328 0-64 28.757333-64 64.213334C0 995.242667 28.672 1024 64 1024z" p-id="11649"></path></svg>