<?xml version="1.0" standalone="no"?><!DOCTYPE svg PUBLIC "-//W3C//DTD SVG 1.1//EN" "http://www.w3.org/Graphics/SVG/1.1/DTD/svg11.dtd"><svg t="1510714167880" class="icon" style="" viewBox="0 0 1024 1024" version="1.1" xmlns="http://www.w3.org/2000/svg" p-id="4313" xmlns:xlink="http://www.w3.org/1999/xlink" width="200" height="200"><defs><style type="text/css"></style></defs><path d="M766.383945 938.666655 257.616055 938.666655C195.28386 938.666655 144.55405 890.520101 144.55405 831.327899L144.55405 509.222552C144.55405 450.03035 193.569113 404.199818 255.901307 404.199818L300.44021 404.199818 300.44021 364.849697C296.632134 236.132268 326.606816 123.604729 456.326371 92.427497 575.378859 63.811252 692.627521 123.359765 730.374242 242.323175 730.374242 242.323175 753.935321 312.471947 722.446317 320.466681L723.55979 320.711645C708.461101 324.54199 691.825821 315.790096 687.772781 301.470838L679.020887 254.504565C653.655981 164.602789 554.512383 112.002345 456.326371 136.9664 357.138234 162.219958 338.142392 244.728276 344.979113 342.780671L344.979113 404.199818 768.098693 404.199818C830.475426 404.199818 879.44595 450.03035 879.44595 509.222552L879.44595 831.327899C879.44595 890.520101 828.738409 938.666655 766.383945 938.666655ZM834.907047 519.332883C834.907047 489.736782 799.275925 448.738721 768.098693 448.738721L344.979113 448.738721C339.567637 450.119427 332.819993 450.00808 326.228235 448.738721L255.901307 448.738721C224.746345 448.738721 189.092953 463.681523 189.092953 493.277624L189.092953 849.588849C189.092953 879.162681 224.746345 894.528602 255.901307 894.528602L768.098693 894.528602C799.275925 894.528602 834.907047 879.964381 834.907047 850.390549L834.907047 519.332883ZM545.404177 688.424828 545.404177 762.114443C545.404177 777.369018 535.382924 806.252496 512 806.252496 488.550268 806.252496 478.595823 777.369018 478.595823 762.114443L478.595823 688.424828C452.496026 675.976205 434.346423 649.631444 434.346423 618.855062 434.346423 576.164523 469.086767 541.490987 512 541.490987 554.890964 541.490987 589.653577 576.164523 589.653577 618.855062 589.653577 649.631444 571.503974 675.976205 545.404177 688.424828Z" p-id="4314"></path></svg>