<?xml version="1.0" standalone="no"?><!DOCTYPE svg PUBLIC "-//W3C//DTD SVG 1.1//EN" "http://www.w3.org/Graphics/SVG/1.1/DTD/svg11.dtd"><svg t="1510654447010" class="icon" style="" viewBox="0 0 1024 1024" version="1.1" xmlns="http://www.w3.org/2000/svg" p-id="9056" xmlns:xlink="http://www.w3.org/1999/xlink" width="200" height="200"><defs><style type="text/css"></style></defs><path d="M1015.43936 782.7968c0 127.57504-104.38144 231.95648-231.95648 231.95648H242.2528c-127.57504 0-231.95648-104.38144-231.95648-231.95648V241.56672c0-127.57504 104.38144-231.95648 231.95648-231.95648h541.23008c127.57504 0 231.95648 104.38144 231.95648 231.95648V782.7968z m-313.6-241.29024c9.64096 84.34176 36.1472 132.54144 100.40832 132.54144 67.47648 0 95.5904-29.7216 105.23136-133.34528-24.90368-7.22944-64.26624-24.90368-85.15072-42.5728-1.60256 51.40992-6.4256 76.30848-15.2576 76.30848-15.26272 0-10.4448-128.52224 0.79872-335.7696h-160.65536c1.60256-35.34336 1.60256-72.2944 2.41152-110.85312h-110.04928c0 39.36256-0.79872 76.3136-1.60256 110.85312h-85.1456v97.19808h81.13152c-2.41152 28.11392-4.81792 54.62016-9.64096 78.72l-36.15232-19.28192-43.37664 65.8688-10.4448-92.37504-69.88288 15.26272V340.6848h77.11744V233.84576H364.45696V131.82976H257.62304v102.016H158.81728V340.6848h98.80576v65.06496c-44.18048 8.83712-85.1456 16.8704-118.8864 22.49216l22.49216 112.4608 96.39424-22.49216v48.19968c0 9.64096-3.21536 12.8512-14.45888 12.8512-10.4448 0-44.18048 0-73.90208-1.60256 13.65504 29.7216 27.31008 74.70592 30.52544 104.42752 54.62016 0 95.5904-2.41152 126.11584-19.2768 30.52544-16.8704 38.55872-44.98432 38.55872-94.79168V493.30176l69.88288-16.06656c17.67424 10.4448 37.75488 22.49216 57.83552 35.34336-20.08064 38.5536-48.9984 71.49056-90.77248 98.80576 25.70752 19.2768 57.83552 60.24704 71.49056 87.55712 51.41504-34.53952 87.55712-76.30848 113.26464-125.312 26.51136 17.66912 49.80736 34.53952 65.8688 48.9984l49.80736-81.12128z m-449.8432 355.0464c30.52544-45.78816 70.69184-116.48 94.78656-176.72704l-112.45568-28.91264c-24.90368 57.03168-65.06496 122.09664-94.78656 159.85152l112.45568 45.78816z m120.49408-167.08608c8.83712 51.40992 14.45888 118.8864 14.45888 159.04768l114.87232-16.8704c-0.80384-40.1664-10.4448-105.23136-20.88448-155.02848l-108.44672 12.8512z m162.26304-1.60256c16.8704 50.60608 33.7408 116.47488 37.75488 156.64128l117.27872-22.49728c-6.4256-40.96512-25.70752-104.42752-44.98432-152.62208l-110.04928 18.47808z m163.06688-392.00256c-1.60256 71.49056-2.4064 134.14912 1.60768 184.7552-20.08576-14.45888-47.39584-32.13312-76.3136-48.9984 9.64096-41.76896 15.26272-86.75328 19.28192-135.7568h55.424z m0 392.00256c33.7408 53.01248 74.70592 124.50816 90.77248 168.68864l110.848-49.80736c-19.28192-44.98432-63.4624-113.26464-98.00192-162.26304l-103.61856 43.38176z" fill="#FFBB5A" p-id="9057"></path></svg>