<?xml version="1.0" standalone="no"?><!DOCTYPE svg PUBLIC "-//W3C//DTD SVG 1.1//EN" "http://www.w3.org/Graphics/SVG/1.1/DTD/svg11.dtd"><svg t="1510625098723" class="icon" style="" viewBox="0 0 1024 1024" version="1.1" xmlns="http://www.w3.org/2000/svg" p-id="21591" xmlns:xlink="http://www.w3.org/1999/xlink" width="200" height="200"><defs><style type="text/css"></style></defs><path d="M843.007232 443.811607c-0.361263 0.361263-2.167578-0.722526-3.973893-2.528841L584.523549 186.953607c-1.806315-1.806315-2.890104-3.61263-2.528841-3.973893l57.260187-57.260187c0.361263-0.361263 2.167578 0.722526 3.973893 2.528841L897.738578 382.577527c1.806315 1.806315 2.890104 3.61263 2.528841 3.973893L843.007232 443.811607 843.007232 443.811607zM843.007232 443.811607" p-id="21592" fill="#ffffff"></path><path d="M968.365497 174.128771l-117.952373-117.952373c-29.623567-29.623567-72.433233-37.029458-104.585641-20.591992-6.683366 3.431999-13.005468 7.947786-18.605045 13.547363l-35.223143 35.223143c-2.528841 2.528841-4.877051 5.238314-6.863997 8.128418 0.361263 0.541895 0.903158 1.083789 1.445052 1.625684l243.852531 243.852531c0.541895 0.541895 1.083789 1.083789 1.625684 1.445052 2.890104-2.167578 5.599577-4.335156 8.128418-6.863997l35.223143-35.223143c5.599577-5.599577 10.115364-11.921679 13.547363-18.605045C1005.394955 246.562004 998.169695 203.752337 968.365497 174.128771L968.365497 174.128771zM968.365497 174.128771" p-id="21593" fill="#ffffff"></path><path d="M386.370788 899.002999c-1.625684 5.780208 412.381725-408.949727 412.381725-408.949727 2.890104-2.890104 5.057682-5.599577 4.696419-5.96084L749.620744 430.083613c-0.361263-0.361263-3.070736 1.625684-5.96084 4.696419L337.600282 841.200917c-0.180632 0.180632-9.212207 5.418945-9.392838 5.599577 0 0-156.246252 45.338508-160.220145 45.699771-3.251367 0.180632-19.869466-18.605045-19.869466-18.605045s-15.534309-13.908626-15.534309-17.159993c0-3.431999 49.673664-170.51614 49.673664-170.51614l404.072676-406.601517c2.890104-2.890104 5.057682-5.599577 4.696419-5.96084l-50.39619-50.39619c-0.361263-0.361263-3.070736 1.806315-5.96084 4.696419L123.371318 639.254895c-0.361263 0.361263-5.780208 5.780208-6.322103 7.947786L30.526724 938.74193c-3.793262 5.96084-6.141471 13.1861-6.141471 20.953255 0 21.675781 17.521256 39.197037 39.197037 39.197037 7.405892 0 14.089257-1.986947 20.050097-5.599577 0.722526 0.180632 1.986947 0 3.431999-0.541895 0 0 279.436938-81.826072 283.952725-85.438702" p-id="21594" fill="#ffffff"></path><path d="M702.29529 382.93879l-67.014288-67.014288c-0.541895-0.541895-3.251367 1.445052-6.141471 4.335156L223.079908 726.499912c-2.34821 2.34821-3.973893 4.515788-4.335156 5.599577l54.911977 12.282942c2.709473 1.083789 4.877051 3.431999 5.599577 6.502734 0 0.361263 0.180632 0.722526 0.180632 1.264421l7.22526 47.325454c1.083789-0.541895 3.070736-2.167578 5.057682-4.154525l406.059623-406.059623C700.850238 386.190157 702.837185 383.480684 702.29529 382.93879L702.29529 382.93879zM702.29529 382.93879" p-id="21595" fill="#ffffff"></path></svg>