<?xml version="1.0" standalone="no"?><!DOCTYPE svg PUBLIC "-//W3C//DTD SVG 1.1//EN" "http://www.w3.org/Graphics/SVG/1.1/DTD/svg11.dtd"><svg t="1510652252036" class="icon" style="" viewBox="0 0 1024 1024" version="1.1" xmlns="http://www.w3.org/2000/svg" p-id="9869" xmlns:xlink="http://www.w3.org/1999/xlink" width="200" height="200"><defs><style type="text/css"></style></defs><path d="M985.6 825.6h-256c-19.2 0-38.4 12.8-38.4 38.4s12.8 38.4 38.4 38.4h256c19.2 0 38.4-12.8 38.4-38.4 0-12.8-12.8-38.4-38.4-38.4z m0-204.8h-256c-19.2 0-38.4 12.8-38.4 38.4s12.8 38.4 38.4 38.4h256c19.2 0 38.4-12.8 38.4-38.4 0-12.8-12.8-38.4-38.4-38.4z m0-198.4h-256c-19.2 0-38.4 12.8-38.4 38.4s12.8 38.4 38.4 38.4h256c19.2 0 38.4-12.8 38.4-38.4s-12.8-38.4-38.4-38.4z m-416 588.8c-19.2 0-38.4-12.8-38.4-38.4V403.2c0-6.4 0-19.2 6.4-32l249.6-275.2H121.6l249.6 275.2c6.4 6.4 6.4 12.8 6.4 32v345.6l57.6 51.2c19.2 12.8 25.6 32 12.8 51.2-12.8 12.8-38.4 19.2-51.2 6.4L320 800c-6.4-6.4-12.8-12.8-12.8-32V416L12.8 83.2C0 64 0 51.2 0 38.4 6.4 25.6 19.2 19.2 38.4 19.2h838.4c12.8 0 32 6.4 38.4 19.2s0 32-6.4 44.8L614.4 416v556.8c0 19.2-19.2 38.4-44.8 38.4z" p-id="9870"></path></svg>