<?xml version="1.0" standalone="no"?><!DOCTYPE svg PUBLIC "-//W3C//DTD SVG 1.1//EN" "http://www.w3.org/Graphics/SVG/1.1/DTD/svg11.dtd"><svg t="1511769431269" class="icon" style="" viewBox="0 0 1024 1024" version="1.1" xmlns="http://www.w3.org/2000/svg" p-id="3033" xmlns:xlink="http://www.w3.org/1999/xlink" width="200" height="200"><defs><style type="text/css"></style></defs><path d="M696.8 540.3c-21.3-10.7-43.7-19.7-67-26.6 73-41.2 122.2-119.4 122.2-209.1 0-132.5-107.5-240-240-240s-240 107.5-240 240c0 89.7 49.2 167.9 122.2 209.1C224 564.4 100 722 100 908.6c0 12.2 0.5 24.3 1.6 36.2 0.7 8.2 7.7 14.5 15.9 14.5H132c8.8 0 16-7.2 16-16v-34.8c0-49.2 9.6-96.8 28.6-141.7 18.3-43.3 44.6-82.3 78-115.7 33.4-33.4 72.4-59.7 115.7-78 44.8-19 92.5-28.6 141.7-28.6s96.8 9.6 141.7 28.6c7.3 3.1 14.5 6.4 21.5 9.9 9.2 4.6 20.4 2.8 27.7-4.5 11.5-11.4 8.5-30.9-6.1-38.2zM320 304.6c0-51.3 20-99.5 56.2-135.8 36.3-36.3 84.5-56.2 135.8-56.2s99.5 20 135.8 56.2C684 205.1 704 253.3 704 304.6s-20 99.5-56.2 135.8c-36.3 36.3-84.5 56.2-135.8 56.2s-99.5-20-135.8-56.2C340 404.1 320 355.9 320 304.6zM782.9 598.2c-9.5-8.3-23.8-7.8-32.8 1.1-9.8 9.8-9.3 25.9 1.1 35 6.2 5.4 12.3 11.1 18.2 17 33.4 33.4 59.7 72.4 78 115.7 19 44.8 28.6 92.5 28.6 141.7 0 0.9 0 0.4 0.2 1.6 0.1 0.8 0.2 1.6 0.2 2.4v31.5c0 8.5 6.9 15.3 15.3 15.3h15.4c7.9 0 14.6-6 15.3-13.9 1.1-12.1 1.6-24.4 1.6-36.9 0-123.9-54.6-235-141.1-310.5z" fill="#33a3f4" p-id="3034"></path><path d="M357.5 629.9c-66.9 35.7-110.1 89.2-132.1 163.7-3.1 10.6 2.9 21.7 13.5 24.8 1.9 0.6 3.8 0.8 5.7 0.8 8.6 0 16.6-5.6 19.2-14.3 8.7-29.5 20.7-54.3 36.8-76 19.4-26.1 44.2-47 75.7-63.8 9.7-5.2 13.4-17.3 8.2-27.1-5.2-9.6-17.3-13.3-27-8.1z" fill="#33a3f4" p-id="3035"></path><path d="M430.405096 639.149318a20 20 0 1 0 3.530042-39.843931 20 20 0 1 0-3.530042 39.843931Z" fill="#33a3f4" p-id="3036"></path></svg>