<?xml version="1.0" standalone="no"?><!DOCTYPE svg PUBLIC "-//W3C//DTD SVG 1.1//EN" "http://www.w3.org/Graphics/SVG/1.1/DTD/svg11.dtd"><svg t="1511769361670" class="icon" style="" viewBox="0 0 1024 1024" version="1.1" xmlns="http://www.w3.org/2000/svg" p-id="1141" xmlns:xlink="http://www.w3.org/1999/xlink" width="200" height="200"><defs><style type="text/css"></style></defs><path d="M902.500297 482.387565 644.108319 482.387565c-57.091276 0-103.555517-46.452985-103.555517-103.555517L540.552801 103.555517c0-57.101509 46.464241-103.555517 103.555517-103.555517l258.391978 0c57.07081 0 103.513562 46.454008 103.513562 103.555517l0 275.276531C1006.014882 435.935604 959.57213 482.387565 902.500297 482.387565zM644.108319 62.193481c-22.818705 0-41.362037 18.554588-41.362037 41.362037l0 275.276531c0 22.806425 18.543332 41.362037 41.362037 41.362037l258.391978 0c22.776749 0 41.320081-18.555611 41.320081-41.362037L943.820378 103.555517c0-22.807449-18.543332-41.362037-41.320081-41.362037L644.108319 62.193481z" p-id="1142" fill="#33a3f4"></path><path d="M372.200512 482.387565 113.809557 482.387565c-57.093323 0-103.555517-46.452985-103.555517-103.555517L10.25404 103.555517c0-57.101509 46.462195-103.555517 103.555517-103.555517L372.200512 0c57.071833 0 103.514585 46.454008 103.514585 103.555517l0 275.276531C475.715097 435.935604 429.272345 482.387565 372.200512 482.387565zM113.809557 62.193481c-22.817682 0-41.362037 18.554588-41.362037 41.362037l0 275.276531c0 22.806425 18.544355 41.362037 41.362037 41.362037L372.200512 420.194084c22.776749 0 41.321104-18.555611 41.321104-41.362037L413.521616 103.555517c0-22.807449-18.544355-41.362037-41.321104-41.362037L113.809557 62.193481z" p-id="1143" fill="#33a3f4"></path><path d="M372.200512 1022.535649 113.809557 1022.535649c-57.093323 0-103.555517-46.452985-103.555517-103.555517L10.25404 643.702578c0-57.101509 46.462195-103.555517 103.555517-103.555517L372.200512 540.14706c57.071833 0 103.514585 46.454008 103.514585 103.555517l0 275.277554C475.715097 976.083687 429.272345 1022.535649 372.200512 1022.535649zM113.809557 602.342588c-22.817682 0-41.362037 18.554588-41.362037 41.35999l0 275.277554c0 22.805402 18.544355 41.362037 41.362037 41.362037L372.200512 960.342168c22.776749 0 41.321104-18.556635 41.321104-41.362037L413.521616 643.702578c0-22.805402-18.544355-41.35999-41.321104-41.35999L113.809557 602.342588z" p-id="1144" fill="#33a3f4"></path><path d="M783.527648 1001.784022c-127.992069 0-232.133941-104.131639-232.133941-232.133941s104.141872-232.133941 232.133941-232.133941c127.993093 0 232.134964 104.131639 232.134964 232.133941S911.520741 1001.784022 783.527648 1001.784022zM783.527648 599.709621c-93.694939 0-169.939437 76.233242-169.939437 169.94046 0 93.704149 76.245522 169.94046 169.939437 169.94046 93.695962 0 169.94046-76.236312 169.94046-169.94046C953.468109 675.942863 877.222587 599.709621 783.527648 599.709621z" p-id="1145" fill="#33a3f4"></path></svg>