<?xml version="1.0" standalone="no"?><!DOCTYPE svg PUBLIC "-//W3C//DTD SVG 1.1//EN" "http://www.w3.org/Graphics/SVG/1.1/DTD/svg11.dtd"><svg t="1512446818133" class="icon" style="" viewBox="0 0 1024 1024" version="1.1" xmlns="http://www.w3.org/2000/svg" p-id="2419" xmlns:xlink="http://www.w3.org/1999/xlink" width="128" height="128"><defs><style type="text/css"></style></defs><path d="M505.735529 0a505.735529 505.735529 0 1 0 0 1011.471059A505.735529 505.735529 0 0 0 505.735529 0z m206.607059 533.504l-178.838588 178.778353a31.623529 31.623529 0 1 1-44.694588-44.694588l130.288941-130.228706H284.491294a31.623529 31.623529 0 0 1 0-63.247059h334.607059L488.809412 343.943529a31.623529 31.623529 0 1 1 44.694588-44.694588l178.778353 178.778353a31.021176 31.021176 0 0 1 8.252235 27.768471 31.021176 31.021176 0 0 1-8.252235 27.76847z" p-id="2420"></path></svg>