<?xml version="1.0" standalone="no"?><!DOCTYPE svg PUBLIC "-//W3C//DTD SVG 1.1//EN" "http://www.w3.org/Graphics/SVG/1.1/DTD/svg11.dtd"><svg t="1511950417610" class="icon" style="" viewBox="0 0 1024 1024" version="1.1" xmlns="http://www.w3.org/2000/svg" p-id="5287" xmlns:xlink="http://www.w3.org/1999/xlink" width="200" height="200"><defs><style type="text/css"></style></defs><path d="M511.999488 959.595154c-60.417021 0-119.036094-11.836583-174.23016-35.181267-53.301973-22.545482-101.167121-54.816466-142.268214-95.915513-41.099047-41.10007-73.370031-88.966241-95.915513-142.267191-23.343661-55.19509-35.181267-113.814162-35.181267-174.231183 0-60.418045 11.837606-119.037117 35.183314-174.23016 22.543436-53.301973 54.81442-101.167121 95.915513-142.267191 41.099047-41.10007 88.965218-73.372078 142.267191-95.916537 55.193043-23.344684 113.812115-35.181267 174.23016-35.181267s119.03507 11.837606 174.228113 35.18229c53.302997 22.543436 101.167121 54.815443 142.269237 95.916537 41.10007 41.101093 73.370031 88.966241 95.915513 142.267191 23.344684 55.194066 35.181267 113.813139 35.181267 174.23016 0 60.415998-11.836583 119.037117-35.180244 174.23016-22.545482 53.30095-54.816466 101.167121-95.916537 142.267191-41.102117 41.102117-88.966241 73.371054-142.269237 95.91756C631.035582 947.759595 572.41651 959.595154 511.999488 959.595154zM511.999488 100.110045c-227.116671 0-411.890978 184.77226-411.890978 411.889955s184.773284 411.889955 411.890978 411.889955S923.889443 739.116671 923.889443 512 739.116159 100.110045 511.999488 100.110045z" p-id="5288"></path><path d="M660.13227 791.862989 361.119129 791.862989c-9.859555 0-17.8526-7.993045-17.8526-17.8526l0 0c0-9.858532 7.994068-17.850553 17.8526-17.850553l299.013141 0c9.859555 0 17.8526 7.993045 17.8526 17.850553l0 0C677.98487 783.870967 669.990802 791.862989 660.13227 791.862989z" p-id="5289"></path><path d="M655.591861 522.513448c-6.971785-6.970762-18.274202-6.970762-25.245987 0l-102.313224 102.3122L528.03265 218.824821c0-9.861602-7.994068-17.8526-17.853623-17.8526-9.858532 0-17.8526 7.992021-17.8526 17.8526L492.326427 624.792902l-102.277408-102.278431c-6.971785-6.971785-18.275225-6.971785-25.248034 0-6.971785 6.971785-6.971785 18.275225 0 25.248034l132.626623 132.627646c3.523243 3.52222 8.15268 5.258771 12.768815 5.222955 4.618181 0.035816 9.245572-1.699712 12.769838-5.222955l132.626623-132.627646C662.565692 540.789697 662.565692 529.485233 655.591861 522.513448z" p-id="5290"></path></svg>