<?xml version="1.0" standalone="no"?><!DOCTYPE svg PUBLIC "-//W3C//DTD SVG 1.1//EN" "http://www.w3.org/Graphics/SVG/1.1/DTD/svg11.dtd"><svg t="1511941895005" class="icon" style="" viewBox="0 0 1024 1024" version="1.1" xmlns="http://www.w3.org/2000/svg" p-id="2441" xmlns:xlink="http://www.w3.org/1999/xlink" width="200" height="200"><defs><style type="text/css"></style></defs><path d="M788.48 873.6768H234.496c-23.3472 0-42.1888-18.8416-42.1888-42.1888V232.2432c0-23.3472 18.8416-42.1888 42.1888-42.1888h69.4272c14.336 0 26.624 11.0592 27.4432 25.3952 0.8192 15.36-11.4688 27.8528-26.624 27.8528h-59.1872v577.1264h531.8656V243.3024h-53.6576c-14.336 0-26.624-11.0592-27.4432-25.3952-0.8192-15.36 11.4688-27.8528 26.624-27.8528h65.536c23.3472 0 42.1888 18.8416 42.1888 42.1888V831.488c0 23.3472-19.0464 42.1888-42.1888 42.1888z" fill="" p-id="2442"></path><path d="M550.2976 243.3024h-72.9088c-14.7456 0-26.624-11.8784-26.624-26.624s11.8784-26.624 26.624-26.624h72.9088c14.7456 0 26.624 11.8784 26.624 26.624s-11.8784 26.624-26.624 26.624zM391.168 273.2032c-10.24 0-18.432-8.192-18.432-18.432V164.0448c0-10.24 8.192-18.432 18.432-18.432s18.432 8.192 18.432 18.432v90.9312c0 10.0352-8.192 18.2272-18.432 18.2272zM636.1088 273.2032c-10.24 0-18.432-8.192-18.432-18.432V164.0448c0-10.24 8.192-18.432 18.432-18.432s18.432 8.192 18.432 18.432v90.9312c0 10.0352-8.3968 18.2272-18.432 18.2272zM703.0784 416.3584H323.3792c-8.3968 0-14.9504-8.192-14.9504-18.432s6.7584-18.432 14.9504-18.432h379.6992c8.3968 0 14.9504 8.192 14.9504 18.432 0 10.0352-6.5536 18.432-14.9504 18.432zM605.3888 568.9344h-192.512c-8.3968 0-14.9504-8.192-14.9504-18.432s6.7584-18.432 14.9504-18.432h192.512c8.3968 0 14.9504 8.192 14.9504 18.432s-6.5536 18.432-14.9504 18.432zM605.3888 724.992h-192.512c-8.3968 0-14.9504-8.192-14.9504-18.432s6.7584-18.432 14.9504-18.432h192.512c8.3968 0 14.9504 8.192 14.9504 18.432s-6.5536 18.432-14.9504 18.432z" fill="" p-id="2443"></path></svg>