<?xml version="1.0" standalone="no"?><!DOCTYPE svg PUBLIC "-//W3C//DTD SVG 1.1//EN" "http://www.w3.org/Graphics/SVG/1.1/DTD/svg11.dtd"><svg t="1512976437363" class="icon" style="" viewBox="0 0 1024 1024" version="1.1" xmlns="http://www.w3.org/2000/svg" p-id="7149" xmlns:xlink="http://www.w3.org/1999/xlink" width="128" height="128"><defs><style type="text/css"></style></defs><path d="M217.728 925.728q0 45.728-31.136 72T109.152 1024Q48.576 1024 10.88 986.272l32.576-50.272q28 25.728 60.576 25.728 16.576 0 28.864-8.288t12.288-24.288q0-36.576-60-32l-14.848-32q4.576-5.728 18.56-24.864t24.288-30.848 21.152-22.016v-0.576q-9.152 0-27.712 0.576t-27.712 0.576v30.272H18.336v-86.848h190.272v50.272l-54.272 65.728q29.152 6.848 46.272 28t17.152 50.272z m1.12-358.304v90.848H12q-3.424-20.576-3.424-30.848 0-29.152 13.44-53.152t32.288-38.848 37.728-27.136 32.288-24.864 13.44-25.728q0-14.272-8.288-22.016t-22.56-7.712q-26.272 0-46.272 33.152L12.064 427.392q13.728-29.152 40.864-45.44t60.288-16.288q41.728 0 70.272 23.712t28.576 64.288q0 28.576-19.424 52.288t-42.848 36.864-43.136 28.864-20.288 30.016h72.576v-34.272h60zM1024 749.728v109.728q0 7.424-5.44 12.864t-12.864 5.44H310.848q-7.424 0-12.864-5.44t-5.44-12.864v-109.728q0-8 5.152-13.152t13.152-5.152h694.848q7.424 0 12.864 5.44t5.44 12.864zM219.424 236v56.576H28V236h61.152q0-23.424 0.288-69.44t0.288-69.44v-6.848h-1.152q-4.576 9.728-28.576 30.848L19.424 77.696 97.152 5.12h60.576v230.848h61.728zM1024 457.152v109.728q0 7.424-5.44 12.864t-12.864 5.44H310.848q-7.424 0-12.864-5.44t-5.44-12.864v-109.728q0-8 5.152-13.152t13.152-5.152h694.848q7.424 0 12.864 5.44t5.44 12.864z m0-292.576v109.728q0 7.424-5.44 12.864t-12.864 5.44H310.848q-7.424 0-12.864-5.44t-5.44-12.864V164.576q0-7.424 5.44-12.864t12.864-5.44h694.848q7.424 0 12.864 5.44t5.44 12.864z" fill="" p-id="7150"></path></svg>