<?xml version="1.0" standalone="no"?><!DOCTYPE svg PUBLIC "-//W3C//DTD SVG 1.1//EN" "http://www.w3.org/Graphics/SVG/1.1/DTD/svg11.dtd"><svg t="1512976416214" class="icon" style="" viewBox="0 0 1024 1024" version="1.1" xmlns="http://www.w3.org/2000/svg" p-id="6445" xmlns:xlink="http://www.w3.org/1999/xlink" width="128" height="128"><defs><style type="text/css"></style></defs><path d="M219.456 804.576q0 45.728-32 77.728t-77.728 32-77.728-32-32-77.728 32-77.728 77.728-32 77.728 32 32 77.728z m0-292.576q0 45.728-32 77.728t-77.728 32-77.728-32-32-77.728 32-77.728 77.728-32 77.728 32 32 77.728zM1024.032 749.728v109.728q0 7.424-5.44 12.864t-12.864 5.44H310.88q-7.424 0-12.864-5.44t-5.44-12.864v-109.728q0-7.424 5.44-12.864t12.864-5.44h694.848q7.424 0 12.864 5.44t5.44 12.864zM219.456 219.424q0 45.728-32 77.728t-77.728 32-77.728-32-32-77.728 32-77.728 77.728-32 77.728 32 32 77.728zM1024.032 457.152v109.728q0 7.424-5.44 12.864t-12.864 5.44H310.88q-7.424 0-12.864-5.44t-5.44-12.864v-109.728q0-7.424 5.44-12.864t12.864-5.44h694.848q7.424 0 12.864 5.44t5.44 12.864z m0-292.576v109.728q0 7.424-5.44 12.864t-12.864 5.44H310.88q-7.424 0-12.864-5.44t-5.44-12.864V164.576q0-7.424 5.44-12.864t12.864-5.44h694.848q7.424 0 12.864 5.44t5.44 12.864z" fill="" p-id="6446"></path></svg>