<?xml version="1.0" standalone="no"?><!DOCTYPE svg PUBLIC "-//W3C//DTD SVG 1.1//EN" "http://www.w3.org/Graphics/SVG/1.1/DTD/svg11.dtd"><svg t="1512380331785" class="icon" style="" viewBox="0 0 1228 1024" version="1.1" xmlns="http://www.w3.org/2000/svg" p-id="6753" xmlns:xlink="http://www.w3.org/1999/xlink" width="153.5" height="128"><defs><style type="text/css"></style></defs><path d="M1176.915764 1023.998635H51.882597a51.472998 51.472998 0 0 1-51.882597-51.063399V51.063399C0 22.869303 23.210636 0 51.882597 0H1176.915764c28.671962 0 51.950864 22.869303 51.950864 51.063399v921.871837c0 28.194096-23.210636 51.063399-51.882597 51.063399zM103.833462 921.871838h1021.063171V102.126797H103.901728v819.745041z m1038.880748-82.329491a52.22393 52.22393 0 0 1-33.723689-12.287983l-208.690921-175.854699-259.754321 170.188573L311.159052 473.087369l-221.866371 225.2797a52.565263 52.565263 0 0 1-73.454835 1.160532 50.380733 50.380733 0 0 1-1.160532-72.157771L312.660916 324.675834l343.927009 363.860848 251.562331-165.000313 268.424175 226.167165a50.517266 50.517266 0 0 1 5.666126 72.021237 52.22393 52.22393 0 0 1-39.458081 17.817576zM676.248698 506.537991c-102.67293 0-186.231218-82.124691-186.231218-183.090956 0-100.897999 83.558289-183.022689 186.231218-183.022689 102.604663 0 186.094685 82.124691 186.094686 183.022689 0 100.966265-83.490022 183.090956-186.094686 183.090956z m0-263.986848c-45.329006 0-82.32949 36.249552-82.32949 80.895892s37.000484 80.964159 82.32949 80.964159c45.329006 0 82.192957-36.317818 82.192957-80.964159 0-44.64634-36.863951-80.895892-82.192957-80.895892z" p-id="6754"></path></svg>