<?xml version="1.0" standalone="no"?><!DOCTYPE svg PUBLIC "-//W3C//DTD SVG 1.1//EN" "http://www.w3.org/Graphics/SVG/1.1/DTD/svg11.dtd"><svg t="1512380192383" class="icon" style="" viewBox="0 0 1024 1024" version="1.1" xmlns="http://www.w3.org/2000/svg" p-id="5380" xmlns:xlink="http://www.w3.org/1999/xlink" width="128" height="128"><defs><style type="text/css"></style></defs><path d="M905.46176 64.84992c35.46112 0.07168 58.22976 15.6416 67.24096 44.5696 13.41952 43.1104-17.25952 81.664-66.36032 81.78176-151.9616 0.3584-303.90784 0.14336-455.8592 0.14848-78.6176 0-264.77056 0.1792-343.3984-0.11264-32.41984-0.11264-55.06048-14.848-64.79872-40.7552-16.3584-43.54048 14.18752-85.31456 63.92832-85.53472 115.73248-0.512 338.99008-0.16384 454.71232-0.16384C675.76832 64.768 790.62016 64.64 905.46176 64.84992z" p-id="5381"></path><path d="M905.46176 834.54976c35.46112 0.07168 58.22976 15.6416 67.24096 44.57472 13.41952 43.1104-17.25952 81.65888-66.36032 81.78176-151.9616 0.3584-303.90784 0.13824-455.8592 0.14848-78.6176 0-264.77056 0.1792-343.3984-0.11776-32.41984-0.10752-55.06048-14.848-64.79872-40.75008-16.3584-43.54048 14.18752-85.31456 63.92832-85.53472 115.73248-0.512 338.99008-0.16896 454.71232-0.16896C675.76832 834.46784 790.62016 834.33984 905.46176 834.54976z" p-id="5382"></path><path d="M905.46176 573.44c35.46112 0.07168 58.22976 15.6416 67.24096 44.5696 13.41952 43.1104-17.25952 81.65888-66.36032 81.78176-151.9616 0.3584-303.90784 0.13824-455.8592 0.14848-78.6176 0-264.77056 0.1792-343.3984-0.11776-32.41984-0.10752-55.06048-14.848-64.79872-40.75008-16.3584-43.54048 14.18752-85.31968 63.92832-85.53984 115.73248-0.512 338.99008-0.15872 454.71232-0.15872C675.76832 573.35808 790.62016 573.23008 905.46176 573.44z" p-id="5383"></path><path d="M905.46176 317.43488c35.46112 0.07168 58.22976 15.6416 67.24096 44.57472 13.41952 43.1104-17.25952 81.65888-66.36032 81.78176-151.9616 0.3584-303.90784 0.13824-455.8592 0.14848-78.6176 0-264.77056 0.1792-343.3984-0.11776-32.41984-0.10752-55.06048-14.848-64.79872-40.75008C25.92256 359.5264 56.46848 317.7472 106.20928 317.52704c115.73248-0.512 338.99008-0.16384 454.71232-0.16384C675.76832 317.35296 790.62016 317.22496 905.46176 317.43488z" p-id="5384"></path></svg>