<?xml version="1.0" standalone="no"?><!DOCTYPE svg PUBLIC "-//W3C//DTD SVG 1.1//EN" "http://www.w3.org/Graphics/SVG/1.1/DTD/svg11.dtd"><svg t="1512975768400" class="icon" style="" viewBox="0 0 1024 1024" version="1.1" xmlns="http://www.w3.org/2000/svg" p-id="4315" xmlns:xlink="http://www.w3.org/1999/xlink" width="128" height="128"><defs><style type="text/css"></style></defs><path d="M444.060444 931.62796V662.533172H172.302222c-31.971556 0-57.726707-26.642101-57.726707-58.613657v-288.633535c0-32.859798 25.755152-59.503192 57.726707-59.503192h271.758222V92.37204H579.051313v163.410748h271.758222c31.971556 0 58.614949 26.643394 58.61495 59.503192v288.632242c0 31.971556-26.643394 58.613657-58.61495 58.613657H579.051313v269.094788H444.060444z m0-319.716849v-305.506263H282.426182c-18.650505 0-33.74804 15.097535-33.748041 33.748041v238.011475c0 18.650505 15.097535 33.74804 33.748041 33.74804h161.634262z m134.990869-305.506263v305.506263h161.634263c18.650505 0 33.749333-15.097535 33.749333-33.74804V340.151596c0-18.649212-15.098828-33.74804-33.749333-33.74804H579.051313z" p-id="4316"></path></svg>