<?xml version="1.0" standalone="no"?><!DOCTYPE svg PUBLIC "-//W3C//DTD SVG 1.1//EN" "http://www.w3.org/Graphics/SVG/1.1/DTD/svg11.dtd"><svg t="1512379957260" class="icon" style="" viewBox="0 0 1024 1024" version="1.1" xmlns="http://www.w3.org/2000/svg" p-id="4156" xmlns:xlink="http://www.w3.org/1999/xlink" width="128" height="128"><defs><style type="text/css"></style></defs><path d="M72.649051 146.453253a69.164837 69.164837 0 0 1-51.487471-21.667644A72.08246 72.08246 0 0 1 0.00881 72.640241q0-30.463421 21.095561-51.487471t51.487472-21.095562h878.719517q30.463421 0 51.487472 21.095562t21.095561 51.487471a72.08246 72.08246 0 0 1-21.095561 52.131065 69.164837 69.164837 0 0 1-51.487472 21.667645z m732.266265 146.453253q30.463421 0 51.487472 21.095561t21.081259 51.487472A72.08246 72.08246 0 0 1 856.474298 417.620604a69.164837 69.164837 0 0 1-51.487472 21.667644h-585.813011a69.164837 69.164837 0 0 1-51.487472-21.667644 72.08246 72.08246 0 0 1-21.22428-52.073857q0-30.463421 21.095561-51.487472t51.487472-21.095561z m146.453253 291.762339a69.179139 69.179139 0 0 1 51.487471 21.681947A72.08246 72.08246 0 0 1 1024.037414 658.453253q0 30.463421-21.095561 51.487472t-51.487472 21.095561H72.734864q-30.463421 0-51.487472-21.095561t-21.095561-51.487472a72.08246 72.08246 0 0 1 21.095561-52.131065 69.179139 69.179139 0 0 1 51.487472-21.681947z m-146.453253 292.906506a69.179139 69.179139 0 0 1 51.487472 21.667645 72.08246 72.08246 0 0 1 21.081259 52.145367q0 30.463421-21.081259 51.487472t-51.487472 21.095561h-585.813012q-30.463421 0-51.487471-21.095561t-21.095562-51.487472a72.08246 72.08246 0 0 1 21.095562-52.145367 69.179139 69.179139 0 0 1 51.487471-21.667645z" fill="" p-id="4157"></path></svg>