<?xml version="1.0" standalone="no"?><!DOCTYPE svg PUBLIC "-//W3C//DTD SVG 1.1//EN" "http://www.w3.org/Graphics/SVG/1.1/DTD/svg11.dtd"><svg t="1512382088898" class="icon" style="" viewBox="0 0 1024 1024" version="1.1" xmlns="http://www.w3.org/2000/svg" p-id="1967" xmlns:xlink="http://www.w3.org/1999/xlink" width="128" height="128"><defs><style type="text/css"></style></defs><path d="M218.653929 326.611709l116.656907 0c11.30344 0 20.466124-9.162684 20.466124-20.466124l0-20.466124c0-11.30344-9.162684-20.466124-20.466124-20.466124l-116.656907 0c-11.30344 0-20.466124 9.162684-20.466124 20.466124l0 20.466124C198.187805 317.448002 207.350488 326.611709 218.653929 326.611709z" p-id="1968"></path><path d="M512 511.829108c-59.246359 0-107.447151 48.200792-107.447151 107.447151s48.200792 107.447151 107.447151 107.447151 107.447151-48.200792 107.447151-107.447151S571.246359 511.829108 512 511.829108z" p-id="1969"></path><path d="M906.996193 347.07681l-14.615882 0 0-26.605961c0-45.212738-36.651758-81.864496-81.864496-81.864496L565.507658 238.606353c-45.212738 0-81.864496 36.651758-81.864496 81.864496l0 26.605961L117.003807 347.07681c-45.212738 0-81.864496 36.651758-81.864496 81.864496l0 380.669906c0 45.212738 36.651758 81.864496 81.864496 81.864496l789.992385 0c45.212738 0 81.864496-36.651758 81.864496-81.864496l0-380.669906C988.860688 383.728568 952.20893 347.07681 906.996193 347.07681zM512 808.587905c-104.386442 0-189.311647-84.924181-189.311647-189.311647 0-104.386442 84.925205-189.311647 189.311647-189.311647 104.387465 0 189.311647 84.925205 189.311647 189.311647C701.311647 723.663724 616.387465 808.587905 512 808.587905zM761.51582 495.456209c-14.97711 0-27.117614-12.140505-27.117614-27.117614 0-14.976086 12.140505-27.117614 27.117614-27.117614s27.117614 12.141528 27.117614 27.117614C788.633435 483.315704 776.491906 495.456209 761.51582 495.456209z" p-id="1970"></path></svg>