<?xml version="1.0" standalone="no"?><!DOCTYPE svg PUBLIC "-//W3C//DTD SVG 1.1//EN" "http://www.w3.org/Graphics/SVG/1.1/DTD/svg11.dtd"><svg t="1511770047246" class="icon" style="" viewBox="0 0 1024 1024" version="1.1" xmlns="http://www.w3.org/2000/svg" p-id="3178" xmlns:xlink="http://www.w3.org/1999/xlink" width="200" height="200"><defs><style type="text/css"></style></defs><path d="M359.29 447.586c-0.158-23.251-19.167-42.106-42.42-41.948-23.41 0-42.42 34.564-42.42 57.815s19.010 25.923 42.42 25.923c23.41 0.158 42.26-18.539 42.42-41.792z" p-id="3179"></path><path d="M847.114 104.931h-688.923c-69.285 0-109.504 40.377-109.504 109.978v476.197c0 69.443 40.062 125.845 109.504 125.845h39.905c5.969 0 7.383-0.313 11.47-0.313 24.195 1.1 44.778-17.753 45.876-41.948v-1.258c0-24.98-14.768-25.294-39.905-25.294-7.069 0-17.281 0.471-25.139 0.627h-24.037c-27.809 0-50.275-38.49-50.275-66.143v-458.287c-0.313-28.436 21.839-52.159 50.275-53.731h673.526c28.436 1.571 50.589 25.294 50.275 53.731v458.444c0 27.809-22.466 50.275-50.275 50.275h-355.222c-7.383 2.672-13.982 7.069-19.167 13.040l-158.837 159.308c-16.181 16.181-16.181 42.42 0 58.602s42.42 0.313 58.602-15.868l146.426-146.896h335.427c69.285 0.158 110.29-40.377 110.29-109.821v-476.353c0-69.598-41.007-110.133-110.29-110.133z" p-id="3180"></path><path d="M679.951 489.846c23.41 0.158 42.578-18.853 42.733-42.26 0.313-23.568-18.695-42.891-42.26-43.205-23.568-0.313-42.891 18.695-43.205 42.26-0.313 23.568 18.695 42.891 42.26 43.205h0.471zM498.489 489.219c23.094-0.313 41.475-19.167 41.319-42.106-0.313-23.094-19.167-41.475-42.106-41.319-22.781 0.313-41.319 18.853-41.319 41.633 0 23.251 18.853 41.948 42.106 41.792z" p-id="3181"></path></svg>